<svg width="74" height="20" viewBox="0 0 74 20" fill="none" xmlns="http://www.w3.org/2000/svg">
    <path d="M1 19L1.7423 17.9259C1.84903 17.7715 1.99408 17.6475 2.16321 17.5661L2.21697 17.5402C2.57653 17.3671 3.0048 17.4263 3.304 17.6903V17.6903L3.421 17.7917C3.88561 18.1943 4.563 18.2337 5.07118 17.8877V17.8877C5.26135 17.7583 5.41544 17.5825 5.51892 17.377L5.90118 16.618C5.97893 16.4636 6.01943 16.2932 6.01943 16.1203V16.1203C6.01943 15.6512 6.31524 15.2331 6.75759 15.0769L6.98362 14.9971C7.16195 14.9342 7.32619 14.8369 7.46703 14.7106L8.32343 13.9432L8.47213 13.812C8.69917 13.6116 8.87775 13.3623 8.9944 13.0829L9.72228 11.3392V11.3392C9.88404 11.0571 9.96914 10.7375 9.96914 10.4123V5.55704C9.96914 5.18957 10.3602 4.95415 10.6849 5.12611V5.12611C10.7552 5.16333 10.8336 5.18279 10.9131 5.18279H11.3153C11.8248 5.18279 12.3152 4.98832 12.6862 4.63907L12.8491 4.48566L13.4002 4.03176C13.5261 3.92809 13.6641 3.8402 13.8113 3.77005L14.6839 3.35421C15.0434 3.18291 15.3435 2.9082 15.5459 2.56527L15.6029 2.46877C15.6321 2.41921 15.6661 2.37257 15.7042 2.32949L16.1482 1.82791C16.4527 1.48401 17.0188 1.63159 17.1166 2.08036V2.08036C17.1242 2.11527 17.1351 2.14937 17.1492 2.1822L17.4708 2.93146C17.5165 3.03788 17.5528 3.14807 17.5794 3.26079L17.8151 4.25902C17.8506 4.4096 17.8686 4.5638 17.8686 4.71853V4.89813C17.8686 5.08695 17.8953 5.27482 17.948 5.45615L18.1252 6.06618C18.1734 6.23178 18.2427 6.39047 18.3315 6.53829L18.6131 7.00697C18.7195 7.18404 18.7979 7.37654 18.8453 7.57759L19.1029 8.66845L19.5143 9.80129V9.80129C19.8289 10.4343 20.7461 10.3908 20.9993 9.73074L21.369 8.76722C21.3942 8.70149 21.4248 8.63797 21.4606 8.57734L22.1132 7.47159C22.1906 7.34042 22.2528 7.20083 22.2985 7.05554L22.6185 6.03889C22.6336 5.99108 22.6524 5.94454 22.6748 5.89971L23.0326 5.18408C23.1906 4.86791 23.6287 4.83441 23.833 5.12287V5.12287C23.8611 5.16257 23.8829 5.20642 23.8975 5.25283L24.5337 7.27419L25.0006 8.26297C25.1266 8.52997 25.192 8.82158 25.192 9.11685V9.92466C25.192 10.1275 25.2572 10.3249 25.3781 10.4878L25.6003 10.7873C25.853 11.1279 26.3582 11.1411 26.6283 10.8142V10.8142C26.6581 10.7781 26.684 10.7388 26.7054 10.6972L27.1669 9.80129L27.3624 9.35256C27.5037 9.02842 27.9302 8.95395 28.1729 9.21103V9.21103C28.2661 9.30968 28.3957 9.36558 28.5314 9.36558H29.1417H29.5802C29.9761 9.36558 30.3474 9.17356 30.5762 8.8505V8.8505C30.6615 8.73013 30.7678 8.62621 30.8901 8.54378L31.6103 8.05846L32.4995 7.45309C32.6736 7.33457 32.8279 7.18928 32.9566 7.02261L33.2363 6.66062C33.4111 6.43444 33.6411 6.25707 33.9043 6.14558V6.14558C34.1801 6.02874 34.4193 5.83962 34.5966 5.59819L34.9017 5.18279L35.4803 4.57004C35.5331 4.51414 35.5767 4.45024 35.6095 4.38071V4.38071C35.73 4.12557 35.9868 3.96281 36.269 3.96281H36.3659C36.6364 3.96281 36.8919 4.08689 37.0592 4.29946L37.2057 4.48566L37.7817 5.18279L38.2923 5.82187C38.5119 6.09666 38.9104 6.14654 39.1909 5.93435V5.93435C39.2386 5.89824 39.2811 5.8557 39.3172 5.80794L39.3935 5.70702C39.5185 5.54151 39.7139 5.44421 39.9214 5.44421H39.9677C40.0452 5.44421 40.1215 5.42526 40.19 5.389V5.389C40.4096 5.2727 40.6818 5.34539 40.8142 5.55572L40.956 5.78101C41.0325 5.90257 41.0731 6.04328 41.0731 6.18691V11.3684C41.0731 11.7669 41.1922 12.1563 41.415 12.4867L41.4921 12.601C41.7531 12.988 42.1413 13.2715 42.5893 13.4024L43.9805 13.8088C44.1705 13.8643 44.3755 13.827 44.5337 13.7082V13.7082C44.8367 13.4808 45.2706 13.5714 45.4573 13.901L46.341 15.4606C46.7028 16.0992 47.586 16.1909 48.0712 15.6403V15.6403C48.1771 15.5202 48.3085 15.4255 48.4559 15.3631L49.0917 15.0937C49.5903 14.8825 49.971 14.463 50.133 13.9463L51.0266 11.095C51.1813 10.6013 51.8537 10.5369 52.0994 10.9922V10.9922L52.5769 12.0759C52.6422 12.224 52.7299 12.3611 52.8369 12.4826V12.4826C53.392 13.1124 54.3431 13.1968 55.0005 12.6747L55.0312 12.6504C55.3174 12.4231 55.6721 12.2993 56.0375 12.2993H56.7093C57.2836 12.2993 57.8301 12.0525 58.2098 11.6217L58.7646 10.9922L59.713 9.90046C60.1804 9.36239 61.0361 9.43392 61.4077 10.0421V10.0421C61.5088 10.2076 61.5623 10.3977 61.5623 10.5915V11.9403C61.5623 12.1778 61.6046 12.4133 61.6871 12.6359L62.4674 14.7393L62.5181 14.8417C62.8921 15.5978 63.9499 15.6521 64.3994 14.9382V14.9382C64.4819 14.8071 64.5916 14.6954 64.7211 14.6105L66.133 13.6849C66.2126 13.6327 66.2884 13.5748 66.3598 13.5118L67.7337 12.2993L69.0261 11.1588C69.1514 11.0482 69.2902 10.9537 69.439 10.8776L71.0873 10.0349C71.423 9.8633 71.7034 9.6003 71.896 9.27624L73 7.41942"
          stroke="#28AF47" stroke-width="2" stroke-linecap="round"/>
</svg>
