<svg width="255" height="78" viewBox="0 0 255 78" fill="none" xmlns="http://www.w3.org/2000/svg">
<path opacity="0.11" d="M3.20571 41.289L0 44.5289V78H255V15.8806L250.046 21.701L241.594 24.7191L236.349 27.9527L231.103 31.1863L224.983 33.9887L220.903 38.5157L217.697 33.9887L214.491 27.9527V22.9945L211.286 19.3297L204.583 24.7191L200.503 27.9527H192.926L187.097 31.1863L183.017 27.9527L180.977 24.7191L178.646 21.701L173.109 34.0418L167.28 35.7664L163.2 39L156.206 30.3771L153.291 31.9048L144.84 30.1802L141.926 27.1622V12.2877L140.177 10.3475L138.429 10.9942H136.68L135.514 12.0721L133.474 13.15L130.269 10.3475L128.229 8.62293L126.771 7.32949H123.274L122.4 8.62293L120.069 10.3475L118.029 12.2877L115.114 13.15L112.491 15.5213L108.411 17.4614L105.206 18.9704L103.457 20.695H99.6685H96.7543L94.4229 18.9704L92.6743 21.7729L90.9257 24.1442L88.8857 25.8688L85.68 22.8508V18.9704L83.3486 15.5213L81.0171 10.3475L79.2686 8.62293L76.6457 12.2877L75.1886 15.5213L72.2743 18.9704L68.4857 25.8688L65.5714 21.7729L64.1143 18.9704L62.9486 15.5213L60.9086 13.15L59.7429 10.3475V8.62293L58.5771 5.17376L57.12 2.80245L56.2457 0L51.8743 3.44917L50.4171 5.17376L44.5886 7.11391L41.9657 8.62293L39.3429 10.3475H34.68L31.7657 9.26965V24.5122L30.8914 25.5774L27.6857 30.9415L25.9371 32.0194L22.1486 34.3907L17.7771 35.4686V38.0554L15.4457 41.289L11.3657 43.2292L8.16 41.289L6.41143 40.2112L3.20571 41.289Z" fill="url(#paint0_linear_13377_29299)"/>
<defs>
<linearGradient id="paint0_linear_13377_29299" x1="127.5" y1="0" x2="128.136" y2="123.163" gradientUnits="userSpaceOnUse">
<stop stop-color="#2AC04C"/>
<stop offset="0.494792" stop-color="#2AC04C" stop-opacity="0"/>
</linearGradient>

</defs>
    <path d="M0 43.875L2.87136 41.0156C3.09124 40.7967 3.35907 40.6319 3.65364 40.5343L5.53412 39.9113C6.09072 39.7269 6.70019 39.796 7.20134 40.1004L8.16 40.6827L10.454 42.0507C11.0241 42.3907 11.7258 42.4256 12.3269 42.144L14.9824 40.8998C15.2864 40.7573 15.5496 40.5407 15.7479 40.2698L17.3912 38.024C17.642 37.6813 17.7771 37.2676 17.7771 36.843V36.52C17.7771 35.5973 18.4084 34.7943 19.305 34.5765L21.8406 33.9604C22.0446 33.9109 22.2396 33.8295 22.4183 33.7193L25.9371 31.5492L27.2676 30.7411C27.5423 30.5742 27.7727 30.3436 27.9394 30.0689L30.8138 25.3297C30.8655 25.2446 30.9234 25.1634 30.9872 25.0869L31.3024 24.7084C31.6018 24.349 31.7657 23.8961 31.7657 23.4284V11.8942C31.7657 10.5527 33.0991 9.61945 34.3595 10.0788V10.0788C34.5715 10.156 34.7954 10.1956 35.0211 10.1956H38.7516C39.1375 10.1956 39.5152 10.0839 39.8391 9.87407L41.9657 8.49629L44.4151 7.1078C44.5304 7.04239 44.652 6.98862 44.7781 6.94729L49.886 5.27197C50.2335 5.15802 50.543 4.95103 50.781 4.67348L51.7429 3.55171C51.8303 3.44984 51.9277 3.35702 52.0336 3.27466L54.1437 1.63416C55.1629 0.841803 56.6597 1.30754 57.0494 2.53829V2.53829C57.0963 2.68637 57.1616 2.82798 57.2438 2.95978L58.4564 4.90416C58.5366 5.03282 58.602 5.17019 58.6512 5.31361L59.6347 8.18086C59.7063 8.38971 59.7429 8.60897 59.7429 8.82976V9.79069C59.7429 10.0579 59.7964 10.3224 59.9003 10.5685L60.7837 12.6611C60.8664 12.857 60.9798 13.0385 61.1197 13.1987L62.6906 14.9979C62.861 15.193 62.9918 15.4193 63.0758 15.6644L64.0638 18.5448C64.0974 18.6427 64.1385 18.7378 64.1868 18.8293L65.5714 21.4531L66.6467 22.9422C67.5035 24.1286 69.3026 24.0233 70.0151 22.745L72.1764 18.8674C72.2415 18.7507 72.3181 18.6407 72.4051 18.5392L75.0052 15.5072C75.1268 15.3653 75.228 15.2071 75.3057 15.0371L76.5626 12.289C76.6179 12.1681 76.6851 12.053 76.7632 11.9455L78.0359 10.1933C78.6863 9.29794 79.9791 9.18681 80.7727 9.95804V9.95804C80.9343 10.115 81.0652 10.3006 81.1589 10.5055L83.2767 15.1362C83.3245 15.2408 83.3813 15.341 83.4463 15.4358L85.3292 18.1805C85.5577 18.5136 85.68 18.908 85.68 19.3119V21.6424C85.68 22.1989 85.9118 22.7303 86.3198 23.1087L87.5966 24.293C88.3338 24.9769 89.4641 25.0071 90.2368 24.3635L90.7452 23.9399C90.8651 23.8401 90.9729 23.7265 91.0664 23.6016L92.6743 21.4531L93.2806 20.4957C93.899 19.5191 95.2141 19.2686 96.1483 19.9494L96.2278 20.0074C96.5699 20.2567 96.9824 20.3911 97.4058 20.3911H99.6686H102.645C103.166 20.3911 103.666 20.1882 104.039 19.8254L104.962 18.9288C105.123 18.772 105.31 18.6435 105.514 18.5488L108.411 17.205L112.227 15.417C112.402 15.335 112.565 15.228 112.709 15.0994L114.777 13.2572C114.999 13.0594 115.262 12.9137 115.548 12.8305L117.57 12.241C117.871 12.1531 118.148 11.9952 118.377 11.7803L120.069 10.1956L122.123 8.69832C122.306 8.56461 122.466 8.40065 122.594 8.21345L122.678 8.09046C123.051 7.54678 123.668 7.22185 124.328 7.22185H126.02C126.504 7.22185 126.972 7.39758 127.337 7.71641L128.229 8.49629L130.269 10.1956L132.447 12.0724C133.068 12.6065 133.95 12.709 134.676 12.3311L135.283 12.015C135.437 11.9352 135.579 11.8359 135.707 11.7195L136.107 11.3543C136.476 11.0188 136.956 10.8328 137.454 10.8328H138.075C138.309 10.8328 138.541 10.7919 138.76 10.7119L138.92 10.6538C139.681 10.3765 140.534 10.5854 141.08 11.183L141.401 11.5341C141.739 11.9028 141.926 12.3843 141.926 12.8839V25.9467C141.926 26.4701 142.131 26.9727 142.497 27.3466L144.409 29.2975C144.69 29.5839 145.05 29.7793 145.443 29.8583L152.603 31.2979C153.049 31.3875 153.511 31.3226 153.915 31.1141L154.77 30.6723C155.608 30.2398 156.633 30.4505 157.232 31.1781L161.961 36.9224C162.65 37.7597 163.881 37.8951 164.736 37.2276L166.977 35.4774C167.177 35.3213 167.405 35.2047 167.649 35.1337L172.228 33.7985C172.787 33.6356 173.247 33.2372 173.489 32.7073L177.282 24.3771C177.904 23.0122 179.751 22.7917 180.676 23.972L180.977 24.356L182.833 27.2545C182.955 27.4449 183.108 27.6132 183.286 27.7524L186.061 29.9189C186.69 30.4101 187.551 30.4803 188.251 30.0975L192.477 27.7872C192.772 27.6264 193.101 27.5422 193.437 27.5422H199.814C200.261 27.5422 200.694 27.393 201.045 27.1185L204.583 24.356L209.804 20.2201C210.635 19.5612 211.837 19.6665 212.541 20.4599L213.987 22.0887C214.312 22.4547 214.491 22.9271 214.491 23.4165V27.0375C214.491 27.3687 214.574 27.6948 214.731 27.9864L217.697 33.4896L219.465 35.95C220.206 36.9811 221.708 37.0696 222.565 36.1326L224.705 33.7934C224.888 33.5929 225.111 33.4319 225.358 33.3202L231.103 30.7283L236.349 27.5422L241.416 24.4641C241.535 24.3923 241.66 24.3329 241.791 24.2869L249.544 21.5589C249.873 21.4432 250.166 21.2436 250.393 20.9797L255 15.6473"
          stroke="#28AF47" stroke-width="2" stroke-linecap="round"/>
</svg>
